<svg width="29" height="29" viewBox="0 0 29 29" fill="none" xmlns="http://www.w3.org/2000/svg">
<path d="M29 14.5C29 22.5081 22.5081 29 14.5 29C6.49187 29 0 22.5081 0 14.5C0 6.49187 6.49187 0 14.5 0C22.5081 0 29 6.49187 29 14.5Z" fill="#C75B7B"/>
<path d="M14.5002 14.4822C13.721 14.4822 13.0835 14.2343 12.5877 13.7384C12.0918 13.2426 11.8439 12.6051 11.8439 11.8259C11.8439 11.0468 12.0918 10.4093 12.5877 9.91343C13.0835 9.41759 13.721 9.16968 14.5002 9.16968C15.2793 9.16968 15.9168 9.41759 16.4127 9.91343C16.9085 10.4093 17.1564 11.0468 17.1564 11.8259C17.1564 12.6051 16.9085 13.2426 16.4127 13.7384C15.9168 14.2343 15.2793 14.4822 14.5002 14.4822ZM10.4385 20.4571C9.5013 20.3035 8.8335 19.4848 8.8335 18.5351V18.502C8.8335 18.0534 8.94565 17.6697 9.16995 17.3509C9.39426 17.0322 9.6835 16.7902 10.0377 16.6249C10.8286 16.2707 11.5871 16.0051 12.3132 15.828C13.0392 15.6509 13.7682 15.5624 14.5002 15.5624C15.2321 15.5624 15.9581 15.6539 16.6783 15.8369C17.3984 16.0199 18.154 16.2825 18.945 16.6249C19.3109 16.7902 19.6061 17.0322 19.8304 17.3509C20.0547 17.6697 20.1668 18.0534 20.1668 18.502V18.5351C20.1668 19.4848 19.499 20.3035 18.5618 20.4571C17.3687 20.6526 15.7398 20.8749 14.5002 20.8749C13.2605 20.8749 11.6316 20.6526 10.4385 20.4571Z" fill="white"/>
</svg>
