<svg width="16" height="16" viewBox="0 0 16 16" fill="none" xmlns="http://www.w3.org/2000/svg">
<path d="M15.9997 8.00377C15.954 4.67397 13.9162 1.69289 10.7952 0.50269C7.65431 -0.695193 3.94739 0.303747 1.82169 2.90345C-0.294023 5.49048 -0.61426 9.21702 1.10903 12.1013C2.82848 14.9798 6.19942 16.4627 9.48281 15.8716C13.2258 15.198 15.9056 11.8344 15.9966 8.08941C15.9989 8.06176 16.0001 8.03334 15.9997 8.00377ZM10.227 14.1675C7.6236 15.1008 4.66697 14.2847 2.91104 12.1482C1.1793 10.0408 0.973103 6.97641 2.36617 4.64132C3.75272 2.32045 6.52849 1.04767 9.19291 1.5577C12.2905 2.15108 14.5006 4.86984 14.5436 8.00377C14.5064 10.731 12.8215 13.2374 10.227 14.1675Z" fill="#FA948B"/>
<path d="M10.0507 4.91437L7.99139 6.97408L5.93212 4.91437C5.26861 4.25071 4.23878 5.28038 4.90268 5.94403L6.9631 8.00375L4.90383 10.0635C4.24032 10.7271 5.26938 11.7572 5.93327 11.0931L7.99254 9.03341L10.0503 11.0916C10.7138 11.7549 11.7436 10.7256 11.0801 10.0615L9.02084 8.00375L11.0801 5.94518C11.7436 5.28038 10.7142 4.25033 10.0507 4.91437Z" fill="#FA948B"/>
</svg>
