<svg width="18" height="18" viewBox="0 0 18 18" fill="none" xmlns="http://www.w3.org/2000/svg">
<path d="M2.25 8.4375H0.5625C0.252 8.4375 0 8.6895 0 9C0 9.3105 0.252 9.5625 0.5625 9.5625H2.25C2.5605 9.5625 2.8125 9.3105 2.8125 9C2.8125 8.6895 2.5605 8.4375 2.25 8.4375ZM9 2.8125C9.3105 2.8125 9.5625 2.5605 9.5625 2.25V0.5625C9.5625 0.252 9.3105 0 9 0C8.6895 0 8.4375 0.252 8.4375 0.5625V2.25C8.4375 2.5605 8.6895 2.8125 9 2.8125ZM14.4118 4.37624L15.5936 3.19441C15.8113 2.97674 15.8113 2.62403 15.5936 2.40635C15.376 2.18868 15.0232 2.18868 14.8056 2.40635L13.6237 3.58818C13.4061 3.80585 13.4061 4.15856 13.6237 4.37624C13.8414 4.59394 14.1941 4.59394 14.4118 4.37624ZM3.99432 13.3864L2.8125 14.5682C2.59482 14.7859 2.59482 15.1386 2.8125 15.3562C3.03018 15.5739 3.38288 15.5739 3.60056 15.3562L4.78238 14.1744C5.00006 13.9567 5.00006 13.604 4.78238 13.3864C4.56471 13.1687 4.21203 13.1686 3.99432 13.3864ZM3.8295 4.62488C4.04944 4.84482 4.4055 4.84482 4.62485 4.62488C4.84423 4.40494 4.84423 4.04888 4.62485 3.82953L3.43182 2.63588C3.21188 2.41594 2.85582 2.41594 2.63644 2.63588C2.4165 2.85582 2.4165 3.21188 2.63644 3.43126L3.8295 4.62488ZM9 15.1875C8.6895 15.1875 8.4375 15.4395 8.4375 15.75V17.4375C8.4375 17.748 8.6895 18 9 18C9.3105 18 9.5625 17.748 9.5625 17.4375V15.75C9.5625 15.4395 9.3105 15.1875 9 15.1875ZM14.1705 13.3751C13.9506 13.1552 13.5945 13.1552 13.3751 13.3751C13.1552 13.5951 13.1552 13.9511 13.3751 14.1705L14.5682 15.3636C14.7881 15.5835 15.1442 15.5835 15.3636 15.3636C15.5829 15.1436 15.5835 14.7876 15.3636 14.5682L14.1705 13.3751ZM17.4375 8.4375H15.75C15.4395 8.4375 15.1875 8.6895 15.1875 9C15.1875 9.3105 15.4395 9.5625 15.75 9.5625H17.4375C17.748 9.5625 18 9.3105 18 9C18 8.6895 17.748 8.4375 17.4375 8.4375ZM9 3.93412C6.20212 3.93412 3.93412 6.20212 3.93412 9C3.93412 11.7979 6.20212 14.0659 9 14.0659C11.7979 14.0659 14.0659 11.7979 14.0659 9C14.0659 6.20212 11.7979 3.93412 9 3.93412ZM9 12.9364C6.82594 12.9364 5.06362 11.1741 5.06362 9C5.06362 6.82594 6.82594 5.06362 9 5.06362C11.1741 5.06362 12.9364 6.82594 12.9364 9C12.9364 11.1741 11.1741 12.9364 9 12.9364Z" fill="#9E9E9E"/>
</svg>
