<svg width="16" height="16" viewBox="0 0 16 16" fill="none" xmlns="http://www.w3.org/2000/svg">
<path d="M8.57984 10.0466L6.8865 8.37325L6.9065 8.35325C8.0665 7.05992 8.89317 5.57325 9.37984 3.99992H11.3332V2.66659H6.6665V1.33325H5.33317V2.66659H0.666504V3.99992H8.11317C7.6665 5.27992 6.95984 6.49992 5.99984 7.56659C5.37984 6.87992 4.8665 6.12659 4.45984 5.33325H3.1265C3.61317 6.41992 4.27984 7.44659 5.11317 8.37325L1.71984 11.7199L2.6665 12.6666L5.99984 9.33325L8.07317 11.4066L8.57984 10.0466ZM12.3332 6.66659H10.9998L7.99984 14.6666H9.33317L10.0798 12.6666H13.2465L13.9998 14.6666H15.3332L12.3332 6.66659ZM10.5865 11.3333L11.6665 8.44659L12.7465 11.3333H10.5865Z" fill="#9E9E9E"/>
</svg>
