<svg width="17" height="16" viewBox="0 0 17 16" fill="none" xmlns="http://www.w3.org/2000/svg">
<path d="M9.15464 16C8.98122 16 8.81489 15.9298 8.69226 15.8047C8.56963 15.6797 8.50074 15.5101 8.50074 15.3333C8.50074 15.1565 8.56963 14.987 8.69226 14.8619C8.81489 14.7369 8.98122 14.6667 9.15464 14.6667C10.6191 14.6669 12.0412 14.166 13.1931 13.2441C14.3451 12.3222 15.1602 11.0328 15.5078 9.58251C15.8554 8.13217 15.7154 6.60484 15.1103 5.24525C14.5052 3.88566 13.4699 2.77251 12.1704 2.08417C10.8709 1.39582 9.38241 1.17212 7.94336 1.44891C6.50432 1.7257 5.19806 2.48697 4.23389 3.61072C3.26972 4.73447 2.70345 6.15566 2.62582 7.64658C2.54818 9.13749 2.96367 10.6118 3.80572 11.8333C3.905 11.9776 3.94422 12.156 3.91481 12.3297C3.8854 12.5033 3.78976 12.658 3.64878 12.76C3.5785 12.8112 3.49898 12.8476 3.4148 12.8673C3.33062 12.8869 3.24346 12.8894 3.15835 12.8745C3.07323 12.8596 2.99185 12.8277 2.9189 12.7806C2.84595 12.7335 2.78288 12.6721 2.73332 12.6C1.72293 11.1343 1.22433 9.36521 1.31742 7.57622C1.4105 5.78724 2.08988 4.08188 3.2467 2.73336C4.40352 1.38485 5.97083 0.471228 7.69753 0.138879C9.42423 -0.193471 11.2104 0.0746841 12.7698 0.900383C14.3293 1.72608 15.5717 3.06153 16.2981 4.69278C17.0246 6.32403 17.1929 8.15666 16.7762 9.89707C16.3596 11.6375 15.3819 13.1849 14 14.2915C12.6181 15.398 10.9118 15.9997 9.15464 16Z" fill="#CDCDCD"/>
<path d="M3.92342 13.3333H0.653903C0.480477 13.3333 0.314154 13.2631 0.191524 13.138C0.0688931 13.013 0 12.8434 0 12.6666C0 12.4898 0.0688931 12.3202 0.191524 12.1952C0.314154 12.0702 0.480477 12 0.653903 12H3.26951V9.33329C3.26951 9.15648 3.33841 8.98691 3.46104 8.86189C3.58367 8.73686 3.74999 8.66663 3.92342 8.66663C4.09684 8.66663 4.26316 8.73686 4.38579 8.86189C4.50842 8.98691 4.57732 9.15648 4.57732 9.33329V12.6666C4.57732 12.8434 4.50842 13.013 4.38579 13.138C4.26316 13.2631 4.09684 13.3333 3.92342 13.3333Z" fill="#CDCDCD"/>
<path d="M7.19309 10.6667C7.10704 10.6672 7.02173 10.6504 6.94206 10.6172C6.86239 10.584 6.78992 10.5351 6.72882 10.4733C6.66753 10.4114 6.61889 10.3376 6.58569 10.2564C6.55249 10.1751 6.5354 10.088 6.5354 10C6.5354 9.91199 6.55249 9.82485 6.58569 9.74361C6.61889 9.66237 6.66753 9.58864 6.72882 9.52666L8.5009 7.72666V4.66667C8.5009 4.48986 8.56979 4.32029 8.69242 4.19526C8.81505 4.07024 8.98138 4 9.1548 4C9.32823 4 9.49455 4.07024 9.61718 4.19526C9.73981 4.32029 9.8087 4.48986 9.8087 4.66667V8C9.8092 8.08774 9.79271 8.17471 9.76017 8.25594C9.72763 8.33716 9.67968 8.41104 9.61907 8.47333L7.65737 10.4733C7.59626 10.5351 7.5238 10.584 7.44413 10.6172C7.36446 10.6504 7.27915 10.6672 7.19309 10.6667Z" fill="#CDCDCD"/>
</svg>
