<svg width="15" height="15" viewBox="0 0 15 15" fill="none" xmlns="http://www.w3.org/2000/svg">
<path d="M1.15802 8.08292C2.07262 8.99876 3.31358 9.51376 4.60789 9.51463C5.24877 9.51506 5.88346 9.38926 6.47572 9.1444C7.06798 8.89955 7.60621 8.54044 8.05969 8.08757C8.51316 7.63471 8.873 7.09696 9.11865 6.50503C9.3643 5.9131 9.49096 5.27858 9.49139 4.6377C9.49182 3.99682 9.36602 3.36213 9.12116 2.76987C8.87631 2.17761 8.5172 1.63938 8.06433 1.1859L7.87843 1C9.12923 1.0741 10.332 1.50778 11.3423 2.24894C12.3526 2.99009 13.1274 4.00719 13.5736 5.17803C14.0199 6.34888 14.1185 7.62366 13.8578 8.84922C13.5971 10.0748 12.988 11.199 12.1038 12.0868C11.2196 12.9746 10.0979 13.5882 8.87335 13.8539C7.64885 14.1196 6.37368 14.0261 5.20104 13.5846C4.0284 13.1431 3.00817 12.3724 2.26294 11.3651C1.51771 10.3578 1.07916 9.15681 1 7.90632L1.15802 8.08292Z" stroke="#9E9E9E" stroke-linecap="round" stroke-linejoin="round"/>
</svg>
