<svg width="42" height="42" viewBox="0 0 42 42" fill="none" xmlns="http://www.w3.org/2000/svg">
<circle cx="21" cy="21" r="21" fill="#C75B7B"/>
<path d="M29.3332 25.0999V27.5999C29.3341 27.832 29.2866 28.0617 29.1936 28.2744C29.1006 28.487 28.9643 28.6779 28.7933 28.8348C28.6222 28.9917 28.4203 29.1112 28.2005 29.1855C27.9806 29.2599 27.7477 29.2875 27.5165 29.2666C24.9522 28.988 22.489 28.1117 20.3249 26.7083C18.3114 25.4288 16.6043 23.7217 15.3249 21.7083C13.9165 19.5343 13.0401 17.0591 12.7665 14.4833C12.7457 14.2528 12.7731 14.0206 12.8469 13.8013C12.9208 13.582 13.0395 13.3805 13.1955 13.2096C13.3515 13.0387 13.5414 12.9022 13.753 12.8087C13.9647 12.7152 14.1935 12.6668 14.4249 12.6666H16.9249C17.3293 12.6626 17.7214 12.8058 18.028 13.0695C18.3346 13.3332 18.5349 13.6995 18.5915 14.0999C18.697 14.9 18.8927 15.6855 19.1749 16.4416C19.287 16.7399 19.3112 17.064 19.2448 17.3757C19.1783 17.6873 19.0239 17.9733 18.7999 18.1999L17.7415 19.2583C18.9278 21.3445 20.6552 23.072 22.7415 24.2583L23.7999 23.1999C24.0264 22.9759 24.3125 22.8215 24.6241 22.755C24.9358 22.6885 25.2599 22.7128 25.5582 22.8249C26.3143 23.107 27.0998 23.3027 27.8999 23.4083C28.3047 23.4654 28.6744 23.6693 28.9386 23.9812C29.2029 24.2931 29.3433 24.6912 29.3332 25.0999Z" stroke="white" stroke-width="2" stroke-linecap="round" stroke-linejoin="round"/>
</svg>
