<svg width="24" height="24" viewBox="0 0 24 24" fill="none" xmlns="http://www.w3.org/2000/svg">
<path d="M23 11.3889C23.0042 13.0021 22.6273 14.5934 21.9 16.0333C21.0376 17.7588 19.7119 19.2101 18.0713 20.2247C16.4307 21.2393 14.5401 21.777 12.6111 21.7778C10.9979 21.782 9.40657 21.4051 7.96666 20.6778L1 23L3.32222 16.0333C2.59491 14.5934 2.21801 13.0021 2.22222 11.3889C2.22297 9.45995 2.76075 7.56929 3.77532 5.9287C4.78989 4.28811 6.24119 2.96239 7.96666 2.10003C9.40657 1.37273 10.9979 0.995829 12.6111 1.00003H13.2222C15.7697 1.14058 18.1759 2.21585 19.98 4.01997C21.7841 5.82409 22.8594 8.23027 23 10.7778V11.3889Z" stroke="white" stroke-width="2" stroke-linecap="round" stroke-linejoin="round"/>
</svg>
