<svg width="22" height="22" viewBox="0 0 22 22" fill="none" xmlns="http://www.w3.org/2000/svg">
<path d="M11 8.98484C9.7108 8.98484 8.73451 8.59608 7.9831 7.86854C7.23433 7.14355 6.84375 6.21394 6.84375 4.99242C6.84375 3.7709 7.23433 2.84129 7.9831 2.11631C8.73451 1.38877 9.7108 1 11 1C12.2892 1 13.2655 1.38877 14.0169 2.11631C14.7657 2.84129 15.1562 3.7709 15.1562 4.99242C15.1562 6.21394 14.7657 7.14355 14.0169 7.86854C13.2655 8.59608 12.2892 8.98484 11 8.98484ZM1.78429 19.9795C1.33532 19.9013 1 19.5077 1 19.0267V17.54C1 16.8777 1.1676 16.3697 1.46204 15.9646C1.79204 15.5105 2.21338 15.1668 2.74265 14.9263C4.2293 14.2823 5.64293 13.8044 6.98452 13.4876C8.32003 13.1722 9.65804 13.0151 11 13.0151C12.3393 13.0151 13.6684 13.1771 14.9892 13.502C16.3274 13.8313 17.7421 14.3063 19.2342 14.9312C19.7865 15.174 20.2133 15.5179 20.538 15.9646C20.8324 16.3697 21 16.8777 21 17.54V19.0267C21 19.5077 20.6647 19.9013 20.2157 19.9795C17.9596 20.3723 13.8889 21 11 21C8.11112 21 4.04037 20.3723 1.78429 19.9795Z" stroke="white" stroke-width="2"/>
</svg>
